<?xml version="1.0" standalone="no"?>
<!DOCTYPE svg PUBLIC "-//W3C//DTD SVG 20010904//EN"
 "http://www.w3.org/TR/2001/REC-SVG-20010904/DTD/svg10.dtd">
<svg version="1.0" xmlns="http://www.w3.org/2000/svg"
 width="661.000000pt" height="661.000000pt" viewBox="0 0 661.000000 661.000000"
 preserveAspectRatio="xMidYMid meet">
<metadata>
Created by potrace 1.14, written by Peter Selinger 2001-2017
</metadata>
<g transform="translate(0.000000,661.000000) scale(0.100000,-0.100000)"
fill="#000000" stroke="none">
<path d="M3246 6603 c-1 -1 -58 -3 -126 -4 -131 -1 -206 -9 -385 -38 -330 -55
-710 -189 -1035 -367 -161 -88 -406 -258 -549 -381 -111 -97 -372 -365 -410
-423 -9 -13 -26 -35 -38 -48 -26 -28 -177 -243 -210 -300 -170 -287 -270 -512
-359 -807 -23 -73 -59 -223 -70 -285 -2 -14 -9 -47 -14 -75 -12 -64 -25 -149
-36 -250 -6 -48 -5 -597 0 -635 3 -19 12 -87 21 -150 8 -63 22 -147 30 -185 9
-39 18 -83 21 -100 15 -78 98 -344 141 -455 24 -61 46 -111 104 -235 36 -78
129 -246 156 -283 13 -17 22 -32 19 -32 -5 0 86 -135 141 -209 166 -226 414
-479 642 -655 71 -55 308 -214 341 -230 8 -4 33 -17 55 -30 285 -167 654 -301
1020 -371 58 -11 71 -13 125 -20 30 -4 63 -9 72 -10 164 -31 670 -25 879 10
13 2 67 11 119 20 336 56 754 211 1074 397 71 42 271 173 292 193 7 5 24 19
40 30 62 45 174 139 174 147 0 4 5 8 10 8 14 0 237 223 316 315 88 103 194
241 194 254 0 6 5 11 10 11 6 0 13 7 17 16 5 12 70 117 101 160 7 10 12 19 55
93 40 71 145 288 180 371 121 295 211 667 235 970 16 211 7 573 -20 740 -5 36
-11 74 -13 85 -56 373 -235 859 -428 1162 -15 24 -27 45 -27 48 0 3 -5 11 -10
18 -6 7 -44 62 -86 122 -126 182 -217 290 -400 470 -130 127 -172 165 -293
259 -84 65 -276 196 -287 196 -4 0 -15 6 -23 14 -20 17 -150 88 -266 144 -159
78 -304 134 -520 201 -33 11 -189 51 -220 57 -141 27 -154 30 -295 49 -52 7
-147 13 -210 15 -63 1 -146 2 -183 3 -38 1 -70 1 -71 0z"/>
</g>
</svg>
